<?xml version="1.0" encoding="utf-8"?><svg xmlns="http://www.w3.org/2000/svg" xmlns:xlink="http://www.w3.org/1999/xlink"><symbol viewBox="0 0 24 24" id="add"><g fill-rule="evenodd"><circle fill="currentColor" cx="12" cy="12" r="10"/><path d="M11.046 7.958v3.088H7.958a.954.954 0 1 0 0 1.908h3.088v3.088a.954.954 0 1 0 1.908 0v-3.088h3.088a.954.954 0 1 0 0-1.908h-3.088V7.958a.954.954 0 1 0-1.908 0z" fill="#0049b0"/></g></symbol><symbol viewBox="0 0 7.6 9" id="arrow-up"><path d="M3.8 1v7m0-7L1 3.8M3.8 1l2.8 2.8" fill="none" stroke="currentColor" stroke-linecap="round" stroke-width="2"/></symbol><symbol viewBox="0 0 540 67.04" id="atlassian-logo"><title>Atlassian logo</title><path d="M19.64 30.6a1.88 1.88 0 0 0-3.2.35L.21 63.4A1.94 1.94 0 0 0 2 66.21h22.6a1.87 1.87 0 0 0 1.74-1.07c4.81-10.1 1.86-25.4-6.7-34.54zM31.55 1.04A42.81 42.81 0 0 0 29 43.34l11 21.8a1.94 1.94 0 0 0 1.74 1.07h22.6A1.94 1.94 0 0 0 66 63.4L34.85 1.04a1.83 1.83 0 0 0-3.3 0zM296.64 27.1c0 8 3.73 14.42 18.31 17.23 8.7 1.82 10.52 3.23 10.52 6.13s-1.82 4.64-8 4.64a44.89 44.89 0 0 1-21.13-5.72v13.1c4.39 2.15 10.19 4.56 21 4.56 15.25 0 21.3-6.79 21.3-16.9m0 0c0-9.53-5-14-19.31-17.07-7.87-1.74-9.78-3.48-9.78-6 0-3.15 2.82-4.47 8-4.47 6.3 0 12.51 1.91 18.4 4.56V14.67a41.58 41.58 0 0 0-18-3.73c-14.09 0-21.38 6.13-21.38 16.16M492.52 11.77v54.44h11.6V24.7l4.89 11.02 16.41 30.49H540V11.77h-11.6v35.14l-4.39-10.2-13.18-24.94h-18.31zM406.06 11.77h12.68v54.44h-12.68zM391.43 50.14c0-9.53-5-14-19.31-17.07-7.87-1.74-9.78-3.48-9.78-6 0-3.15 2.82-4.47 8-4.47 6.3 0 12.51 1.91 18.4 4.56V14.67a41.58 41.58 0 0 0-18-3.73c-14.09 0-21.38 6.13-21.38 16.16 0 8 3.73 14.42 18.31 17.23 8.7 1.82 10.52 3.23 10.52 6.13s-1.82 4.64-8 4.64a44.89 44.89 0 0 1-21.13-5.72v13.1c4.39 2.15 10.19 4.56 21 4.56 15.25 0 21.3-6.79 21.3-16.9M198.16 11.77v54.44h26.06l4.1-11.76h-17.4V11.77h-12.76zM146.67 11.77v11.77h14.09v42.67h12.76V23.54h15.08V11.77h-41.93zM128.17 11.77h-16.72l-19 54.44H107l2.66-9.17a36 36 0 0 0 20.34 0l2.69 9.17h14.5zm-8.36 35.46a24.76 24.76 0 0 1-7-1l7-23.77 7 23.77a24.76 24.76 0 0 1-7 1zM269.14 11.77h-16.72l-19 54.44h14.5l2.71-9.17a36 36 0 0 0 20.3 0l2.69 9.17h14.5zm-8.36 35.46a24.76 24.76 0 0 1-7-1l7-23.77 7 23.77a24.76 24.76 0 0 1-7 1zM464.42 11.77H447.7l-19 54.44h14.5l2.71-9.17a36 36 0 0 0 20.3 0l2.69 9.17h14.5zm-8.36 35.46a24.76 24.76 0 0 1-7-1l7-23.77 7 23.77a24.76 24.76 0 0 1-7 1z" fill="currentColor"/></symbol><symbol viewBox="0 0 14 15" id="attachment"><g fill="none" fill-rule="evenodd"><path d="M-3-2h20v20H-3z"/><path d="M12.2 7.293l-5.123 5.123a3.005 3.005 0 0 1-4.246.003 3.007 3.007 0 0 1 0-4.243L8.31 2.699a1.745 1.745 0 0 1 2.477-.002c.684.684.685 1.79.002 2.472l-5.136 5.136a.492.492 0 0 1-.7-.007.494.494 0 0 1 0-.707l4.773-4.773a.75.75 0 1 0-1.06-1.06L3.89 8.53a1.994 1.994 0 0 0 0 2.829 1.992 1.992 0 0 0 2.822.007l5.136-5.137a3.247 3.247 0 0 0-.003-4.593 3.245 3.245 0 0 0-4.598.002L1.77 7.115a4.507 4.507 0 0 0-.001 6.365 4.505 4.505 0 0 0 6.367-.003l5.123-5.123a.75.75 0 1 0-1.06-1.061z" fill="#505F79"/></g></symbol><symbol viewBox="0 0 24 24" id="audio"><path d="M19 6.673V15.2a2.8 2.8 0 0 1-2.8 2.8h-.4a2.8 2.8 0 0 1-2.8-2.8v-.4a2.8 2.8 0 0 1 2.8-2.8h.4c.278 0 .547.04.8.116V8.242l-6 .621V16.2A2.8 2.8 0 0 1 8.2 19h-.4A2.8 2.8 0 0 1 5 16.2v-.4A2.8 2.8 0 0 1 7.8 13h.4c.278 0 .547.04.8.116V6.654c0-.38.31-.721.72-.764l8.56-.886c.398-.041.72.235.72.615v1.054z" fill="currentColor"/></symbol><symbol viewBox="0 0 13 12" id="back"><g transform="translate(1 1)" fill="none" fill-rule="evenodd"><rect fill="#42526E" y="4" width="12" height="2" rx="1"/><path stroke="#42526E" stroke-width="2" stroke-linecap="round" stroke-linejoin="round" d="M5.033 10.02L.053 5.04l4.995-5"/></g></symbol><symbol viewBox="0 0 8 8" id="cancel"><path fill="currentColor" d="M7.694 6.216a1.044 1.044 0 1 1-1.478 1.478L4 5.478 1.783 7.694a1.042 1.042 0 0 1-1.477 0 1.046 1.046 0 0 1 0-1.478L2.522 4 .306 1.784A1.046 1.046 0 0 1 1.783.306L4 2.523 6.216.306a1.044 1.044 0 1 1 1.478 1.478L5.478 4l2.216 2.216z"/></symbol><symbol viewBox="0 0 10 8" id="check"><path d="M9.061 1.707l-5.09 5.091a.999.999 0 0 1-1.415 0L.293 4.535a.999.999 0 1 1 1.414-1.414l1.556 1.556L7.647.293a.999.999 0 1 1 1.414 1.414" fill-rule="evenodd"/></symbol><symbol viewBox="0 0 8 5" id="chevron"><path d="M.3 1.6l3 2.6c.5.3 1 .3 1.3 0l3-2.6c.5-.4.5-1 .2-1.3-.3-.4-1-.4-1.3 0L3.5 3h1l-3-3C1 0 .5 0 .3.2c-.3.5-.3 1 0 1.4z" fill="currentColor" fill-rule="evenodd"/></symbol><symbol viewBox="0 0 18 18" id="clear"><path d="M6.81 12.22a1 1 0 0 1-.71-.31 1 1 0 0 1 0-1.41L7.59 9 6.08 7.5a1 1 0 0 1 0-1.41 1 1 0 0 1 1.41 0L9 7.6l1.48-1.49a1 1 0 0 1 .69-.28 1 1 0 0 1 .7.28 1 1 0 0 1 0 1.41L10.41 9l1.45 1.45a1 1 0 0 1 0 1.42 1.05 1.05 0 0 1-.7.28 1 1 0 0 1-.72-.31L9 10.43l-1.46 1.48a1 1 0 0 1-.7.29M9 0a9 9 0 1 0 9 9 9 9 0 0 0-9-9" fill="#97a0af"/></symbol><symbol viewBox="0 0 12 12" id="clock"><path d="M5.4 3.603v2.4a.6.6 0 0 0 .18.427l1.484 1.48a.602.602 0 0 0 .848 0 .602.602 0 0 0 0-.848L6.6 5.752V2.4a.6.6 0 0 0-1.2 0v1.203zM6 12A6 6 0 1 1 6 0a6 6 0 0 1 0 12z" fill="currentColor" fill-rule="evenodd"/></symbol><symbol viewBox="0 0 12 12" id="comment"><g fill="none" fill-rule="evenodd"><path d="M11.225 11.463v-.001s-1.042-1.696-.51-2.338l-.025.015C11.507 8.176 12 6.96 12 5.635 12 2.528 9.308 0 6 0S0 2.528 0 5.635c0 3.107 2.692 5.635 6 5.635a6.27 6.27 0 0 0 2.638-.582c.668.767 1.525 1.18 2.16 1.29l.001-.003a.315.315 0 0 0 .11.025c.19 0 .343-.173.343-.388a.422.422 0 0 0-.027-.149z" fill="currentColor"/><rect fill="#FFF" x="2.667" y="3.75" width="6.667" height="1.5" rx=".75"/><rect fill="#FFF" x="2.667" y="6" width="3.333" height="1.5" rx=".75"/></g></symbol><symbol viewBox="0 0 1007.67 82.82" id="community-logo"><defs><linearGradient id="ama" x1="28.14" y1="48.98" x2="11.26" y2="19.74" gradientTransform="matrix(1 0 0 -1 0 84)" gradientUnits="userSpaceOnUse"><stop offset="0" stop-color="currentColor" stop-opacity=".4"/><stop offset=".92" stop-color="currentColor"/></linearGradient></defs><title>Atlassian Community logo</title><path d="M19.35 30.11a1.86 1.86 0 0 0-3.16.34l-16 32a1.91 1.91 0 0 0 1.71 2.77h22.28a1.84 1.84 0 0 0 1.71-1.06c4.81-9.94 1.9-25.03-6.54-34.05z" fill="url(#ama)"/><path d="M31.09 1a42.19 42.19 0 0 0-2.46 41.65l10.73 21.5a1.91 1.91 0 0 0 1.71 1.06h22.27a1.91 1.91 0 0 0 1.71-2.77L34.34 1a1.81 1.81 0 0 0-3.25 0zM292.31 26.67c0 7.92 3.67 14.21 18 17 8.57 1.8 10.37 3.18 10.37 6s-1.8 4.57-7.84 4.57a44.24 44.24 0 0 1-20.82-5.63v12.9c4.33 2.12 10 4.49 20.66 4.49 15 0 21-6.7 21-16.66m0 0c0-9.39-5-13.8-19-16.82-7.76-1.72-9.64-3.43-9.64-5.88 0-3.1 2.78-4.41 7.92-4.41 6.21 0 12.33 1.88 18.13 4.49v-12.3a41 41 0 0 0-17.72-3.67c-13.88 0-21.07 6-21.07 15.92M485.33 11.56v53.65h11.43V24.3l4.82 10.86 16.17 30.05h14.37V11.56h-11.43v34.63l-4.33-10.05-12.98-24.58h-18.05zM400.14 11.57h12.49v53.65h-12.49zM385.72 49.37c0-9.39-5-13.8-19-16.82-7.76-1.72-9.64-3.43-9.64-5.88 0-3.1 2.78-4.41 7.92-4.41 6.21 0 12.33 1.88 18.13 4.49V14.42a41 41 0 0 0-17.72-3.67c-13.88 0-21.07 6-21.07 15.92 0 7.92 3.67 14.21 18 17 8.57 1.8 10.37 3.18 10.37 6s-1.8 4.57-7.84 4.57a44.24 44.24 0 0 1-20.82-5.63v12.9c4.33 2.12 10 4.49 20.66 4.49 15 0 21-6.7 21-16.66M195.27 11.56v53.65h25.67l4.05-11.59h-17.15V11.56h-12.57zM144.53 11.56v11.6h13.89v42.05h12.57V23.16h14.86v-11.6h-41.32zM126.3 11.56h-16.48L91.11 65.21h14.29l2.65-9a35.51 35.51 0 0 0 20 0l2.65 9H145zm-8.24 34.94a24.4 24.4 0 0 1-6.87-1l6.88-23.41 6.88 23.42a24.4 24.4 0 0 1-6.89.99zM265.21 11.56h-16.48L230 65.21h14.29l2.65-9a35.51 35.51 0 0 0 20 0l2.65 9h14.29zM257 46.5a24.4 24.4 0 0 1-6.87-1L257 22.1l6.88 23.42a24.4 24.4 0 0 1-6.88.98zM457.64 11.56h-16.47l-18.71 53.65h14.29l2.65-9a35.51 35.51 0 0 0 20 0l2.65 9h14.29zM449.4 46.5a24.4 24.4 0 0 1-6.87-1l6.87-23.4 6.88 23.42a24.4 24.4 0 0 1-6.88.98zM610.69 62.54c-3.61 2.38-9.33 3.43-15.31 3.43-19 0-29.74-11.44-29.74-29.65 0-17.6 10.74-29.92 29.57-29.92 5.63 0 11.26 1.06 15.4 4v7.7c-4.14-2.64-8.71-4-15.4-4-13.55 0-21.65 9-21.65 22.26s8.36 22.08 22.09 22.08a32.46 32.46 0 0 0 15-3.52zM616.24 43c0-13.2 7.74-22.79 20.94-22.79S657.95 29.8 657.95 43s-7.66 23-20.77 23-20.94-9.8-20.94-23zm7.39 0c0 8.36 4.14 15.93 13.55 15.93s13.38-7.57 13.38-15.93-4-15.75-13.37-15.75-13.56 7.39-13.56 15.75zM704.15 65.09h-7.57V38.52c0-7.92-3.17-11.44-10.38-11.44-7 0-11.88 4.66-11.88 13.55v24.46h-7.57v-44h7.57v7.22a15.43 15.43 0 0 1 13.9-8.1c7.48 0 12.58 3.79 14.78 10.74 2.46-6.78 8.36-10.74 15.66-10.74 9.85 0 15.31 6.69 15.31 19.1v25.78h-7.57V40.63c0-9.06-3.17-13.55-10.38-13.55-7 0-11.88 4.66-11.88 13.55zM781.94 65.09h-7.57V38.52c0-7.92-3.17-11.44-10.38-11.44-7 0-11.88 4.66-11.88 13.55v24.46h-7.57v-44h7.57v7.22a15.43 15.43 0 0 1 13.9-8.1c7.48 0 12.58 3.78 14.78 10.74 2.46-6.78 8.36-10.74 15.66-10.74 9.85 0 15.31 6.69 15.31 19.1v25.78h-7.56V40.63c0-9.06-3.17-13.55-10.38-13.55-7 0-11.88 4.66-11.88 13.55zM821.45 21.09H829v26.58c0 7.92 3.17 11.44 10.38 11.44 7 0 11.88-4.66 11.88-13.55V21.09h7.57v44h-7.57v-7.21a15.43 15.43 0 0 1-13.9 8.1c-10.12 0-15.93-7-15.93-19.1zM907.69 65.09h-7.57V38.52c0-7.92-3.17-11.44-10.38-11.44-7 0-11.88 4.66-11.88 13.55v24.46h-7.57v-44h7.57v7.22a15.43 15.43 0 0 1 13.9-8.1c10.12 0 15.93 7 15.93 19.1zM922.12 4.2a4.94 4.94 0 0 1 5.28 5.28 5.28 5.28 0 0 1-10.56 0 4.94 4.94 0 0 1 5.28-5.28zm-3.87 16.9h7.57v44h-7.57zM954.68 57.7a24 24 0 0 0 4.75-.62v7.3a18.15 18.15 0 0 1-5.1.7c-9.41 0-14-5.54-14-13.73V28.13h-7.13v-7h7.13v-9.36h7.39v9.33h11.7v7h-11.7v23.09c.01 3.87 2.28 6.51 6.96 6.51zM963.31 21.09h8.1l14.08 37.66 14.08-37.66h8.1L991 63.68c-4.93 12.58-7.74 19.1-18.92 19.1a20 20 0 0 1-8.1-1.23V75a27.12 27.12 0 0 0 7.66 1.06c6.16 0 8.89-4.22 12.5-13.81h-4.93z" fill="currentColor"/></symbol><symbol viewBox="0 0 20 20" id="cross-circle"><g fill-rule="nonzero" fill="none"><circle fill="currentColor" cx="10" cy="10" r="10"/><path d="M11.477 7.113l-4.36 4.386a1 1 0 1 0 1.418 1.41l4.36-4.386a1 1 0 0 0-1.418-1.41z" fill="#FFF"/><path d="M7.084 8.501l4.358 4.377a1 1 0 1 0 1.418-1.411L8.5 7.09a1 1 0 0 0-1.417 1.411h.001z" fill="#FFF"/></g></symbol><symbol viewBox="0 0 10 13" id="document"><path d="M9.993 4.278l.007.726v6.425a1.43 1.43 0 0 1-1.429 1.428H1.43c-.79 0-1.429-.64-1.429-1.428v-10A1.427 1.427 0 0 1 1.429 0h3.767c.335 0 .659.117.916.331l3.624 3.026a.715.715 0 0 1 .257.549v.372zm-4.98-2.85l-.011 1.993a.985.985 0 0 0 .989.995h2.576L5.014 1.428z" fill="currentColor" fill-rule="evenodd"/></symbol><symbol viewBox="0 0 24 24" id="dot-error"><path d="M12.706 3.706a1.003 1.003 0 0 0-1.412 0l-7.588 7.588a1.003 1.003 0 0 0 0 1.412l7.588 7.588c.39.39 1.026.386 1.412 0l7.588-7.588c.39-.39.386-1.026 0-1.412l-7.588-7.588zM13 12.208v-3.71A.496.496 0 0 0 12.495 8h-.99a.494.494 0 0 0-.505.498v3.71A2.492 2.492 0 0 1 12 12c.356 0 .694.074 1 .208zM12 16a1 1 0 1 0 0-2 1 1 0 0 0 0 2z" fill="currentColor" fill-rule="evenodd"/></symbol><symbol viewBox="0 0 24 24" id="dot-info"><path d="M13 11.792v4.717a.49.49 0 0 1-.505.491h-.99a.503.503 0 0 1-.505-.491v-4.717c.306.134.644.208 1 .208s.694-.074 1-.208zM12 20a8 8 0 1 0 0-16 8 8 0 0 0 0 16zm0-10a1.5 1.5 0 1 0 0-3 1.5 1.5 0 0 0 0 3z" fill="currentColor" fill-rule="evenodd"/></symbol><symbol viewBox="0 0 24 24" id="dot-success"><path d="M12 21a9 9 0 1 1 0-18 9 9 0 0 1 0 18zm-2.293-9.707a1 1 0 1 0-1.414 1.414l2 2a1 1 0 0 0 1.414 0l4-4a1 1 0 1 0-1.414-1.414L11 12.586l-1.293-1.293z" fill="currentColor" fill-rule="evenodd"/></symbol><symbol viewBox="0 0 24 24" id="download"><g fill="currentColor" fill-rule="evenodd"><path d="M10.687 17.292a.983.983 0 0 0-1.397 0 1 1 0 0 0 0 1.407l1.964 1.98a1.082 1.082 0 0 0 1.538 0l1.919-1.933a1 1 0 0 0 0-1.408.983.983 0 0 0-1.398 0l-1.29 1.3-1.336-1.346z" fill-rule="nonzero"/><path d="M13.001 19.993L13 10.006C13 9.451 12.552 9 12 9s-1 .45-1 1.007l.001 9.987c0 .555.448 1.006 1 1.006s1-.45 1-1.007z" fill-rule="nonzero"/><path d="M7.938 5.48a4.8 4.8 0 0 0-.777-.062C4.356 5.418 2 7.62 2 10.498 2 13.409 4.385 16 7.1 16h2.881v-1.993H7.1c-1.657 0-3.115-1.663-3.115-3.508 0-1.778 1.469-3.087 3.104-3.087h.012c.389 0 .686.05.97.15l.17.063c.605.248.875-.246.875-.246l.15-.267c.73-1.347 2.201-2.096 3.716-2.12a4.14 4.14 0 0 1 4.069 3.645l.046.34s.071.525.665.525c.013 0 .012.005.023.005h.254c1.136 0 1.976.959 1.976 2.158 0 1.207-.987 2.342-2.07 2.342h-3.964V16h3.964C20.105 16 22 13.955 22 11.665c0-2-1.312-3.663-3.138-4.074-.707-2.707-3.053-4.552-5.886-4.591-1.975.02-3.901.9-5.038 2.48z"/></g></symbol><symbol viewBox="0 0 14 14" id="emoji"><g transform="translate(-3 -3)" fill="none" fill-rule="evenodd"><path d="M0 0h20v20H0z"/><path d="M10 16.75a6.75 6.75 0 1 0 0-13.5 6.75 6.75 0 0 0 0 13.5zm0-1.5a5.25 5.25 0 1 1 0-10.5 5.25 5.25 0 0 1 0 10.5z" fill="#505F79"/><circle fill="#505F79" cx="8.5" cy="8.5" r="1"/><circle fill="#505F79" cx="11.5" cy="8.5" r="1"/><path d="M7.407 11.698c.085.255.259.602.55.952.502.602 1.186.975 2.043.975.857 0 1.54-.373 2.043-.975.291-.35.465-.697.55-.952a.625.625 0 0 0-1.186-.396c-.04.12-.147.335-.325.548-.28.335-.627.525-1.082.525-.455 0-.803-.19-1.082-.525a1.864 1.864 0 0 1-.325-.548.625.625 0 0 0-1.186.396z" fill="#505F79"/></g></symbol><symbol viewBox="0 0 24 24" id="error"><title>Error icon</title><path d="M13.416 4.417l6.168 6.167c.783.784.782 2.05 0 2.833l-6.168 6.167a2.002 2.002 0 0 1-2.832 0l-6.168-6.167a2.002 2.002 0 0 1 0-2.833l6.168-6.167a2.002 2.002 0 0 1 2.832 0zM12 14a1 1 0 0 0 1-1V8a1 1 0 0 0-2 0v5a1 1 0 0 0 1 1zm0 3a1 1 0 1 0 0-2 1 1 0 0 0 0 2z" fill="currentColor" fill-rule="evenodd"/></symbol><symbol viewBox="0 0 24 24" id="external"><path d="M13.207 12.207L8.82 16.594a.497.497 0 0 1-.712-.001l-.7-.7a.509.509 0 0 1-.002-.713l4.387-4.387-2.436-2.436C9.159 8.159 9.225 8 9.503 8h5.994c.27 0 .503.225.503.503v5.994c0 .27-.16.343-.357.146l-2.436-2.436z" fill="currentColor" fill-rule="evenodd"/></symbol><symbol viewBox="0 0 14 29" id="facebook"><path d="M.192 9.48v4.958H3.23V29h5.84V14.376h4.073l.433-4.895H9.07V6.693c0-1.154.23-1.61 1.346-1.61h3.16V0H9.533C5.188 0 3.23 1.913 3.23 5.577V9.48H.19z" fill="currentColor" fill-rule="evenodd"/></symbol><symbol viewBox="0 0 48 48" id="google-g"><path fill="#EA4335" d="M24 9.5c3.54 0 6.71 1.22 9.21 3.6l6.85-6.85C35.9 2.38 30.47 0 24 0 14.62 0 6.51 5.38 2.56 13.22l7.98 6.19C12.43 13.72 17.74 9.5 24 9.5z"/><path fill="#4285F4" d="M46.98 24.55c0-1.57-.15-3.09-.38-4.55H24v9.02h12.94c-.58 2.96-2.26 5.48-4.78 7.18l7.73 6c4.51-4.18 7.09-10.36 7.09-17.65z"/><path fill="#FBBC05" d="M10.53 28.59c-.48-1.45-.76-2.99-.76-4.59s.27-3.14.76-4.59l-7.98-6.19C.92 16.46 0 20.12 0 24c0 3.88.92 7.54 2.56 10.78l7.97-6.19z"/><path fill="#34A853" d="M24 48c6.48 0 11.93-2.13 15.89-5.81l-7.73-6c-2.15 1.45-4.92 2.3-8.16 2.3-6.26 0-11.57-4.22-13.47-9.91l-7.98 6.19C6.51 42.62 14.62 48 24 48z"/><path fill="none" d="M0 0h48v48H0z"/></symbol><symbol viewBox="0 0 12 12" id="image"><path d="M5 9L4 8l-2 2h8V8.2L8 6 5 9zM0 1.002C0 .45.456 0 1.002 0h9.996C11.55 0 12 .456 12 1.002v9.996C12 11.55 11.544 12 10.998 12H1.002A1.007 1.007 0 0 1 0 10.998V1.002zM3.5 5a1.5 1.5 0 1 0 0-3 1.5 1.5 0 0 0 0 3z" fill="#42526E" fill-rule="evenodd"/></symbol><symbol viewBox="0 0 16 16" id="info"><title>Info icon</title><path d="M0 8a8 8 0 1 1 8 8 8 8 0 0 1-8-8zm7.2-.8v4a.8.8 0 1 0 1.6 0v-4a.8.8 0 1 0-1.6 0zM8 5.6a.8.8 0 1 0-.8-.8.8.8 0 0 0 .8.8z" fill="currentColor"/></symbol><symbol viewBox="0 0 24 24" id="inline-message-confirm"><path d="M12 2c5.5 0 10 4.5 10 10s-4.5 10-10 10S2 17.5 2 12 6.5 2 12 2zm-2.3 9.3c-.4-.4-1-.4-1.4 0-.4.4-.4 1 0 1.4l2 2c.4.4 1 .4 1.4 0l4-4c.4-.4.4-1 0-1.4s-1-.4-1.4 0L11 12.6l-1.3-1.3z" fill="#36b37e"/></symbol><symbol viewBox="0 0 24 24" id="inline-message-default"><path d="M12.9 5c-.5-1-1.4-1-1.9 0L3.9 18.4c-.5 1 0 1.8 1.1 1.8h14c1.1 0 1.6-.8 1.1-1.8L12.9 5zM12 15c-.6 0-1-.4-1-1V9c0-.6.4-1 1-1s1 .4 1 1v5c0 .6-.4 1-1 1m0 3c-.6 0-1-.4-1-1s.4-1 1-1 1 .4 1 1-.4 1-1 1" fill="#0052cc"/></symbol><symbol viewBox="0 0 24 24" id="inline-message-error"><path d="M13.4 4.4c-.8-.8-2-.8-2.8 0l-6.2 6.2c-.8.8-.8 2 0 2.8l6.2 6.2c.8.8 2 .8 2.8 0l6.2-6.2c.8-.8.8-2 0-2.8l-6.2-6.2zM12 14c-.6 0-1-.4-1-1V8c0-.6.4-1 1-1s1 .4 1 1v5c0 .6-.4 1-1 1m0 3c-.6 0-1-.4-1-1s.4-1 1-1 1 .4 1 1-.4 1-1 1" fill="#de350b"/></symbol><symbol viewBox="0 0 24 24" id="inline-message-info"><path d="M2 12c0 5.5 4.5 10 10 10s10-4.5 10-10S17.5 2 12 2 2 6.5 2 12zm10-2c.6 0 1 .4 1 1v5c0 .6-.4 1-1 1s-1-.4-1-1v-5c0-.6.4-1 1-1zm0-3c.6 0 1 .4 1 1s-.4 1-1 1-1-.4-1-1 .4-1 1-1z" fill="#6554c0"/></symbol><symbol viewBox="0 0 24 24" id="inline-message-warning"><path d="M12.9 5c-.5-1-1.4-1-1.9 0L3.9 18.4c-.5 1 0 1.8 1.1 1.8h14c1.1 0 1.6-.8 1.1-1.8L12.9 5zM12 15c-.6 0-1-.4-1-1V9c0-.6.4-1 1-1s1 .4 1 1v5c0 .6-.4 1-1 1m0 3c-.6 0-1-.4-1-1s.4-1 1-1 1 .4 1 1-.4 1-1 1" fill="#ffab00"/></symbol><symbol viewBox="0 0 19 18" id="like"><path d="M1 8a1 1 0 0 0-1 1v8a1 1 0 0 0 2 0V9a1 1 0 0 0-1-1m15.16 4.45L14 16H5.22V9A13.15 13.15 0 0 0 8.8 4.78a.2.2 0 0 1 .4 0V7a1 1 0 0 0 1 1h6zm0-6.45h-5V2a2 2 0 0 0-4 0v1c0 1.45-2.15 3.46-3.3 4.43A2 2 0 0 0 3.22 9v7a2 2 0 0 0 2 2H14a2 2 0 0 0 1.72-1l2.13-3.55a2 2 0 0 0 .29-1V8a2 2 0 0 0-2-2z" fill="currentColor"/></symbol><symbol viewBox="0 0 18 18" id="liked"><path d="M1 8a1 1 0 0 0-1 1v8a1 1 0 0 0 2 0V9a1 1 0 0 0-1-1m15-2h-5V2a2 2 0 0 0-4 0v1c0 1.45-2.15 3.46-3.3 4.43A2 2 0 0 0 3 9v7a2 2 0 0 0 2 2h8.83a2 2 0 0 0 1.72-1l2.13-3.55a2 2 0 0 0 .28-1V8a2 2 0 0 0-2-2" fill="currentColor"/></symbol><symbol viewBox="0 0 18 19" id="linkedin"><path d="M2.173 0a2.172 2.172 0 1 1 0 4.344 2.172 2.172 0 0 1 0-4.344zM.298 5.992h3.75v12.055H.297V5.992zm6.017-.08h3.59v1.65h.052c.5-.95 1.723-1.95 3.546-1.95 3.792 0 4.493 2.497 4.493 5.744v6.61H14.25v-5.86c0-1.4-.024-3.198-1.946-3.198-1.95 0-2.247 1.524-2.247 3.097v5.962H6.315V5.912" fill="currentColor" fill-rule="evenodd"/></symbol><symbol viewBox="0 0 12 18" id="location"><path d="M12 6s.499 3.984-5.96 11.951c-.011.05-.025.067-.04.05-.015.017-.028 0-.04-.05C-.498 9.984 0 6 0 6a6 6 0 1 1 12 0zM6 9a3 3 0 1 0 0-6 3 3 0 0 0 0 6z" fill="currentColor" fill-rule="evenodd"/></symbol><symbol viewBox="0 0 24 24" id="lock"><g transform="translate(3 3)" fill="none" fill-rule="evenodd"><circle cx="12" cy="12" r="10.5" transform="translate(-3 -3)" stroke="#FFF" stroke-width="3"/><circle fill="#DFE1E6" cx="9" cy="9" r="9"/><path d="M9.294 2.74h-.06c-1.666 0-3.015 1.328-3.015 2.968v1.529H7.74V5.723c0-.82.675-1.484 1.508-1.484h.03c.833 0 1.507.664 1.507 1.484v1.514h1.523v-1.53c0-1.64-1.35-2.967-3.015-2.967M6.22 7.237h1.52v1.499H6.22v-1.5zm4.567 0h1.523v1.499h-1.523v-1.5zm0 1.499H6.22a1.51 1.51 0 0 0-1.522 1.499v3.499c0 .55.44.998.995.998h7.145c.55 0 .995-.448.995-.998v-3.5c0-.827-.683-1.498-1.523-1.498h-1.522z" fill="#42526E"/></g></symbol><symbol viewBox="0 0 18 6" id="more"><title>Group 2</title><path d="M15.4 5.133c.589 0 1.092-.208 1.508-.625.417-.416.625-.92.625-1.508 0-.589-.208-1.092-.625-1.508A2.055 2.055 0 0 0 15.4.867c-.589 0-1.092.208-1.508.625-.417.416-.625.92-.625 1.508 0 .589.208 1.092.625 1.508.416.417.92.625 1.508.625zm-6.4 0c.589 0 1.092-.208 1.508-.625.417-.416.625-.92.625-1.508 0-.589-.208-1.092-.625-1.508A2.055 2.055 0 0 0 9 .867c-.589 0-1.092.208-1.508.625-.417.416-.625.92-.625 1.508 0 .589.208 1.092.625 1.508.416.417.92.625 1.508.625zm-6.4 0c.589 0 1.092-.208 1.508-.625.417-.416.625-.92.625-1.508 0-.589-.208-1.092-.625-1.508A2.055 2.055 0 0 0 2.6.867c-.589 0-1.092.208-1.508.625C.675 1.908.467 2.412.467 3c0 .589.208 1.092.625 1.508.416.417.92.625 1.508.625z" fill="currentColor" fill-rule="evenodd"/></symbol><symbol viewBox="0 0 16 16" id="notifications"><path d="M1.78 14.22h12.44V1.78H1.78zM0 1.77A1.77 1.77 0 0 1 1.77 0h12.46A1.77 1.77 0 0 1 16 1.77v12.46A1.77 1.77 0 0 1 14.23 16H1.77A1.77 1.77 0 0 1 0 14.23z" fill="currentColor"/><path d="M5.49 12.44H.89v1.33a1.33 1.33 0 0 0 1.34 1.33h11.54a1.33 1.33 0 0 0 1.34-1.33v-1.33h-4.6a2.67 2.67 0 0 1-5 0zM3.56 8h8.89v1.78H3.56zm0-3.56h8.89v1.78H3.56z" fill="currentColor"/></symbol><symbol viewBox="0 0 16 16" id="notifications-unread"><path d="M3.56 4.44v1.78h5.56a4.87 4.87 0 0 1-.89-1.78zm0 3.56h8.89v1.78H3.56z" fill="currentColor"/><path data-name="Shape" d="M14.22 12.44h-3.7a2.67 2.67 0 0 1-5 0H1.78V1.78h6.41A4.87 4.87 0 0 1 9.08 0h-7.3A1.78 1.78 0 0 0 0 1.78v12.44A1.78 1.78 0 0 0 1.78 16h12.44A1.78 1.78 0 0 0 16 14.22V6.88a4.87 4.87 0 0 1-1.78.89z" fill="currentColor"/><circle cx="12.89" cy="3.11" r="3.11" fill="#ffab00"/></symbol><symbol viewBox="0 0 24 24" id="office-building"><g fill="currentColor" fill-rule="evenodd"><path d="M8 6H5.009C3.902 6 3 6.962 3 8.15v10.7C3 20.04 3.9 21 5.009 21h5.487H8v-2.145c-1.616-.001-3-.003-3-.004 0 0 .005-10.708.009-10.708L8 8.144V6z" fill-rule="nonzero"/><path d="M12 7h2v2h-2zm-6 3h2v2H6zm0 3h2v2H6zm6-3h2v2h-2zm0 3h2v2h-2zm2 3h2v3h-2zm2-9h2v2h-2zm0 3h2v2h-2zm0 3h2v2h-2z"/><path d="M18.991 19C18.998 19 19 4.995 19 4.995c0 .006-7.991.005-7.991.005C11.002 5 11 19 11 19h7.991zM9 4.995C9 3.893 9.902 3 11.009 3h7.982C20.101 3 21 3.893 21 4.995v14.01A2.004 2.004 0 0 1 18.991 21H9V4.995z" fill-rule="nonzero"/></g></symbol><symbol viewBox="0 0 24 24" id="open"><g fill="currentColor" fill-rule="evenodd"><path d="M11.031 7A1.03 1.03 0 0 0 10 8.036a1.05 1.05 0 0 0 1.044 1.045l3.121.014.014 3.121a1.05 1.05 0 0 0 1.045 1.044 1.03 1.03 0 0 0 1.036-1.035l-.019-4.161a1.053 1.053 0 0 0-1.045-1.045L11.035 7h-.004z"/><path d="M13.364 8.292l-7.072 7.071a1.002 1.002 0 0 0 0 1.415c.39.39 1.024.39 1.415 0l7.071-7.071A1.002 1.002 0 0 0 14.071 8a1 1 0 0 0-.707.292z"/></g></symbol><symbol viewBox="0 0 14 14" id="pencil"><path d="M12.92 2.94l-1.333 1.332-2.734-2.734L10.186.205A.696.696 0 0 1 10.698 0c.205 0 .376.068.513.205l1.709 1.71a.696.696 0 0 1 .205.512.696.696 0 0 1-.205.512zM0 10.39l8.066-8.066 2.735 2.735-8.067 8.066H0v-2.734z" fill="#42526E" fill-rule="evenodd"/></symbol><symbol viewBox="0 0 16 16" id="plus"><g fill="#FFF" fill-rule="evenodd"><rect x="7" width="2" height="16" rx="1"/><rect y="7" width="16" height="2" rx="1"/></g></symbol><symbol viewBox="0 0 12 12" id="profile-checkmark"><path d="M0 6c0-3.314 2.693-6 6-6 3.314 0 6 2.693 6 6 0 3.314-2.693 6-6 6-3.314 0-6-2.693-6-6zm5.512 2.117l3.516-3.314a.624.624 0 0 0 0-.92.72.72 0 0 0-.976 0l-3.03 2.854L3.95 5.724a.718.718 0 0 0-.976 0 .624.624 0 0 0 0 .92l1.563 1.473c.135.127.31.19.488.19a.718.718 0 0 0 .49-.19z" fill="currentColor" fill-rule="evenodd"/></symbol><symbol viewBox="0 0 12 12" id="profile-company"><path d="M3.333 2v10h1.664H1.34C.6 12 0 11.36 0 10.567V3.433C0 2.64.6 2 1.34 2h1.993zM2 4.667V6h1.333V4.667H2zm0 2V8h1.333V6.667H2zM4 1.33C4 .595 4.6 0 5.34 0h5.32C11.4 0 12 .595 12 1.33v9.34c0 .735-.6 1.33-1.34 1.33H4V1.33zm2 1.337V4h1.333V2.667H6zm0 2V6h1.333V4.667H6zm0 2V8h1.333V6.667H6zm1.333 2v2h1.334v-2H7.333zm1.334-6V4H10V2.667H8.667zm0 2V6H10V4.667H8.667zm0 2V8H10V6.667H8.667z" fill="currentColor"/></symbol><symbol viewBox="0 0 12 12" id="profile-job-title"><g fill="currentColor" fill-rule="evenodd"><path d="M7.5 6.605h-3A1.5 1.5 0 0 0 3 8.107v2.387a5.37 5.37 0 0 0 3 .911 5.38 5.38 0 0 0 3-.91V8.106c0-.83-.672-1.502-1.5-1.502"/><circle cx="6" cy="4.2" r="1.8"/><path d="M6 10.8a4.8 4.8 0 1 0 0-9.6 4.8 4.8 0 0 0 0 9.6zM6 12A6 6 0 1 1 6 0a6 6 0 0 1 0 12z" fill-rule="nonzero"/></g></symbol><symbol viewBox="0 0 11 13" id="profile-location"><path d="M5.106 13c-3.333-3.623-5-6.332-5-8.126 0-2.692 2.24-4.874 5-4.874 2.762 0 5 2.182 5 4.874 0 1.794-1.666 4.503-5 8.126zm0-5.69c1.34 0 2.427-1.06 2.427-2.365 0-1.306-1.087-2.365-2.427-2.365S2.68 3.64 2.68 4.945c0 1.306 1.086 2.365 2.426 2.365z" fill="currentColor"/></symbol><symbol viewBox="0 0 12 12" id="profile-plus"><path d="M6 12A6 6 0 1 1 6 0a6 6 0 0 1 0 12zm-.572-8.425v1.853H3.575a.573.573 0 1 0 0 1.144h1.853v1.853a.573.573 0 1 0 1.144 0V6.572h1.853a.572.572 0 1 0 0-1.144H6.572V3.575a.572.572 0 1 0-1.144 0z" fill="currentColor" fill-rule="evenodd"/></symbol><symbol viewBox="0 0 20 20" id="question-circle"><title>question-circle</title><g fill-rule="nonzero" fill="none"><circle fill="currentColor" cx="10" cy="10" r="10"/><circle fill="#FFF" cx="10" cy="16" r="1"/><path d="M13.89 7.05a3.975 3.975 0 0 0-2.957-2.942C8.321 3.514 6.017 5.446 6 7.95l.005.147c.045.51.47.9.982.904.552 0 1-.447 1.002-.998a2.004 2.004 0 0 1 4.007-.002c0 1.102-.898 2-2.003 2H10a1 1 0 0 0-1 .987v2.014a1.002 1.002 0 0 0 2.004 0v-.782c0-.217.145-.399.35-.472A3.99 3.99 0 0 0 13.89 7.05" fill="#FFF"/></g></symbol><symbol viewBox="0 0 16 17" id="search"><g stroke="currentColor" stroke-width="2" fill="none" fill-rule="evenodd"><path d="M13.172 7.086a6.087 6.087 0 1 1-12.173 0 6.087 6.087 0 0 1 12.173 0z"/><path d="M11 12l3.497 3.497" stroke-linecap="round"/></g></symbol><symbol viewBox="0 0 20 20" id="spinner"><circle cx="10" cy="10" r="9"/></symbol><symbol viewBox="0 0 12 12" id="tag"><path d="M5.08 0H1.69C.76 0 0 .76 0 1.689V5.08c.01.16 4.2 4.32 6.32 6.42.67.66 1.75.67 2.42.02.84-.819 1.94-1.89 2.76-2.709.66-.66.67-1.74.01-2.41C9.41 4.25 5.25.02 5.08 0zM3 4a1 1 0 1 0 0-2 1 1 0 0 0 0 2z" fill-rule="evenodd"/></symbol><symbol viewBox="0 0 10 10" id="timestamp"><path d="M5.26 5V1.37h-.52v4.148h3.113V5H5.26zM5 9.667A4.667 4.667 0 1 1 5 .333a4.667 4.667 0 0 1 0 9.334z" fill="currentColor" fill-rule="evenodd"/></symbol><symbol viewBox="0 0 18 15" id="twitter"><path d="M18 1.732a7.363 7.363 0 0 1-2.12.58A3.71 3.71 0 0 0 17.503.27a7.413 7.413 0 0 1-2.345.896A3.696 3.696 0 0 0 12.462 0a3.692 3.692 0 0 0-3.597 4.533A10.483 10.483 0 0 1 1.253.677a3.692 3.692 0 0 0 1.143 4.93 3.686 3.686 0 0 1-1.673-.462v.047a3.695 3.695 0 0 0 2.962 3.622 3.715 3.715 0 0 1-1.667.063 3.697 3.697 0 0 0 3.45 2.565 7.416 7.416 0 0 1-4.587 1.58c-.297 0-.59-.017-.88-.05a10.456 10.456 0 0 0 5.66 1.658C12.455 14.628 16.17 9 16.17 4.12c0-.16-.004-.318-.01-.477a7.518 7.518 0 0 0 1.842-1.91" fill="currentColor" fill-rule="evenodd"/></symbol><symbol viewBox="0 0 17 13" id="upvote"><path d="M7.008.68c.623-.91 1.635-.904 2.254 0l6.714 9.807c.623.91.238 1.646-.878 1.646H1.172c-1.107 0-1.497-.742-.878-1.646L7.008.68z" fill-rule="evenodd"/></symbol><symbol viewBox="0 0 10 14" id="user"><g fill="currentColor" fill-rule="evenodd"><path d="M0 8.986C0 7.89.895 7 2.002 7h5.33c1.105 0 2.001.892 2.001 1.996v3.018c0 2.648-9.333 2.648-9.333 0V8.986z"/><circle cx="4.667" cy="3.111" r="3.111"/></g></symbol><symbol viewBox="0 0 21 18" id="users"><g fill="none" fill-rule="evenodd"><path d="M-2-3h24v24H-2z"/><g fill="currentColor"><path d="M6.126 7a4 4 0 0 0 1.228 2H7c-1.651 0-3 1.341-3 2.996v2.963c-2.126-.176-4-.919-4-2.23V9c0-1.104.887-2 2-2h4.126zm8.102 0h4.127c1.104 0 2 .885 2 2v3.73c0 1.31-1.875 2.053-4 2.23v-2.964A3 3 0 0 0 13.353 9H13a4 4 0 0 0 1.228-2zM7.967 2.554a3.999 3.999 0 0 0-1.963 3.274 3 3 0 1 1 1.963-3.274zm5.996 3.274A3.994 3.994 0 0 0 12 2.553a3 3 0 1 1 1.963 3.275z"/><path d="M5 12c0-1.105.887-2 2-2h6c1.105 0 2 .885 2 2v3.73c0 3.027-10 3.027-10 0V12z"/><circle cx="10" cy="6" r="3"/></g></g></symbol><symbol viewBox="0 0 24 24" id="warning"><title>Warning icon</title><path d="M12.938 4.967l7.124 13.458c.516.974.045 1.77-1.057 1.77H4.995c-1.102 0-1.575-.792-1.057-1.77l7.124-13.458c.516-.974 1.358-.978 1.876 0zM12 15a1 1 0 0 0 1-1V9a1 1 0 0 0-2 0v5a1 1 0 0 0 1 1zm0 3a1 1 0 1 0 0-2 1 1 0 0 0 0 2z" fill="currentColor" fill-rule="evenodd"/></symbol><symbol viewBox="0 0 20 16" id="watch"><path d="M10 14c-4.54 0-8-4.26-8-6 0-2 3.46-6 8-6 4.37 0 8 4 8 6 0 1.74-3.46 6-8 6m0-14C4.48 0 0 4.84 0 8s4.57 8 10 8 10-4.91 10-8-4.49-8-10-8m0 10a2 2 0 1 1 2-2 2 2 0 0 1-2 2m0-6a4 4 0 1 0 4 4 4 4 0 0 0-4-4" fill="currentColor"/></symbol><symbol viewBox="0 0 20 16" id="watching"><path d="M6 8a4 4 0 1 1 4 4 4 4 0 0 1-4-4zm4-8C4.48 0 0 4.84 0 8s4.58 8 10 8 10-4.91 10-8-4.49-8-10-8m0 6a2 2 0 1 0 2 2 2 2 0 0 0-2-2" fill="currentColor"/></symbol><symbol viewBox="0 0 8 8" id="x"><path d="M7.363 5.95A.999.999 0 1 1 5.95 7.362l-2.122-2.12-2.121 2.12a.997.997 0 0 1-1.414 0 1 1 0 0 1 0-1.414l2.12-2.12-2.12-2.122A1 1 0 0 1 1.707.293l2.122 2.121 2.12-2.12a.999.999 0 1 1 1.414 1.413l-2.12 2.121 2.12 2.121z" fill="#42526E" fill-rule="evenodd"/></symbol></svg>